# 3ds Max Wavefront OBJ Exporter v0.97b - (c)2007 guruware
# File Created: 10.12.2014 01:49:22

mtllib Fuel Canister.mtl

#
# object default
#

v  -0.1389 0.8496 0.1035
v  -0.3564 0.7310 -0.1035
v  -0.3564 0.7310 0.1035
v  -0.1389 0.8496 -0.1035
v  0.1398 0.8496 0.1035
v  0.1398 0.8496 -0.1035
v  0.2384 0.9590 0.1035
v  0.2384 0.9590 -0.1035
v  0.2778 0.9824 0.1035
v  0.2778 0.9824 -0.1035
v  0.3159 0.9844 0.1035
v  0.3159 0.9844 -0.1035
v  0.3464 0.9722 0.1035
v  0.3464 0.9722 -0.1035
v  0.3655 0.9478 0.1035
v  0.3655 0.9478 -0.1035
v  -0.3777 0.6924 -0.1035
v  -0.3777 0.6924 0.1035
v  -0.3777 0.0531 -0.1035
v  -0.3777 0.0531 0.1035
v  -0.3594 0.0198 -0.1035
v  -0.3594 0.0198 0.1035
v  0.3777 0.9165 0.1035
v  0.3777 0.9165 -0.1035
v  0.3777 0.0531 0.1035
v  0.3777 0.0531 -0.1035
v  0.3594 0.0198 0.1035
v  0.3594 0.0198 -0.1035
v  -0.1204 0.8477 0.0407
v  -0.1147 0.8477 0.0407
v  -0.1204 0.9751 0.0205
v  -0.1147 0.9751 0.0205
v  -0.1147 0.9751 -0.0218
v  -0.1204 0.9751 -0.0218
v  -0.1204 0.8477 -0.0421
v  -0.1147 0.8477 -0.0421
v  -0.1154 0.9517 0.0220
v  0.2832 0.9297 -0.0000
v  0.2832 0.9517 0.0220
v  -0.1154 0.9297 -0.0000
v  0.2832 0.9517 -0.0220
v  -0.1154 0.9517 -0.0220
v  -0.1154 0.9736 -0.0000
v  0.2832 0.9736 -0.0000
v  -0.1898 0.9014 0.0839
v  -0.1761 0.8813 0.0590
v  -0.1790 0.9028 0.0590
v  -0.1866 0.8794 0.0839
v  -0.2070 0.8071 0.0590
v  -0.2179 0.8975 0.1002
v  -0.2057 0.8618 0.1002
v  -0.3015 0.8862 0.1002
v  -0.2318 0.7910 0.0967
v  -0.2542 0.7827 0.1002
v  -0.2791 0.7700 0.0837
v  -0.3296 0.8823 0.0839
v  -0.3386 0.8809 0.0590
v  -0.2859 0.7637 0.0590
v  -0.2791 0.7700 0.0343
v  -0.3296 0.8823 0.0341
v  -0.3015 0.8862 0.0178
v  -0.2542 0.7827 0.0178
v  -0.2057 0.8618 0.0178
v  -0.2318 0.7910 0.0213
v  -0.1866 0.8794 0.0342
v  -0.1898 0.9014 0.0341
v  -0.2179 0.8975 0.0178
v  0.3247 0.0000 0.1035
v  0.3247 0.0000 -0.1035
v  -0.3247 0.0000 0.1035
v  -0.3247 0.0000 -0.1035
v  0.2598 0.9526 0.1229
v  0.3059 0.9692 0.1229
v  0.3379 0.9575 0.1229
v  0.3582 0.9224 0.1229
v  0.1454 0.8311 0.1229
v  -0.1454 0.8281 0.1229
v  -0.3423 0.7168 0.1229
v  -0.3584 0.6870 0.1229
v  -0.3584 0.0531 0.1229
v  -0.3350 0.0196 0.1229
v  0.3318 0.0196 0.1229
v  0.3584 0.0531 0.1229
v  0.2598 0.9526 -0.1229
v  0.3059 0.9692 -0.1229
v  0.3379 0.9575 -0.1229
v  0.3582 0.9224 -0.1229
v  0.1454 0.8311 -0.1229
v  -0.1454 0.8281 -0.1229
v  -0.3423 0.7168 -0.1229
v  -0.3584 0.6870 -0.1229
v  -0.3584 0.0531 -0.1229
v  -0.3350 0.0196 -0.1229
v  0.3318 0.0196 -0.1229
v  0.3584 0.0531 -0.1229
# 95 vertices

vn -0.2465 0.8913 0.3805
vn -0.5868 0.7166 -0.3768
vn -0.6628 0.6461 0.3783
vn -0.1577 0.9116 -0.3796
vn -0.3502 0.8471 0.3997
vn -0.4898 0.7765 -0.3963
vn -0.6287 0.7193 0.2955
vn -0.5784 0.7603 -0.2955
vn -0.3158 0.8761 0.3643
vn -0.2320 0.9019 -0.3645
vn 0.1382 0.9268 0.3491
vn 0.2144 0.9125 -0.3485
vn 0.5309 0.7995 0.2810
vn 0.6220 0.7308 -0.2810
vn 0.7996 0.4859 0.3530
vn 0.8253 0.4407 -0.3530
vn -0.8688 0.3034 -0.3912
vn -0.8943 0.2150 0.3923
vn -0.9117 -0.1556 -0.3802
vn -0.8914 -0.2449 0.3812
vn -0.7132 -0.6094 -0.3464
vn -0.6448 -0.6811 0.3469
vn 0.9093 0.1834 0.3735
vn 0.9204 0.1170 -0.3729
vn 0.9355 -0.1863 0.3000
vn 0.9080 -0.2924 -0.2999
vn 0.7049 -0.6103 0.3615
vn 0.6358 -0.6818 -0.3618
vn -0.7071 0.1106 0.6984
vn 0.4472 0.1399 0.8834
vn -0.5494 0.6353 0.5426
vn 0.7960 0.4602 0.3931
vn 0.3121 0.7228 -0.6165
vn -0.5492 0.6358 -0.5423
vn -0.7071 0.1115 -0.6982
vn 0.8944 0.0705 -0.4416
vn 0.0000 -0.3170 0.9484
vn 0.0000 -0.9489 0.3154
vn 0.0000 0.3170 0.9484
vn 0.0000 -0.9489 -0.3154
vn 0.0000 -0.3170 -0.9484
vn 0.0000 0.3170 -0.9484
vn 0.0000 0.9489 0.3154
vn 0.0000 0.9489 -0.3154
vn 0.5828 0.6586 0.4759
vn 0.9991 -0.0414 0.0002
vn 0.8070 0.5905 0.0004
vn 0.7741 -0.0782 0.6282
vn 0.9173 -0.3981 0.0002
vn 0.1468 0.7600 0.6331
vn 0.4453 -0.1241 0.8867
vn -0.2845 0.5420 0.7907
vn 0.5815 -0.2527 0.7733
vn -0.0932 -0.1160 0.9889
vn -0.7042 -0.3182 0.6347
vn -0.5541 0.7436 0.3742
vn -0.9881 -0.1538 0.0004
vn -0.9119 -0.4104 0.0004
vn -0.7044 -0.3184 -0.6344
vn -0.6661 0.5642 -0.4878
vn -0.2856 0.5417 -0.7906
vn -0.0925 -0.1164 -0.9889
vn 0.4461 -0.1243 -0.8863
vn 0.5824 -0.2534 -0.7724
vn 0.7745 -0.0788 -0.6276
vn 0.4584 0.7931 -0.4010
vn 0.1483 0.7598 -0.6330
vn 0.3065 -0.9095 0.2808
vn 0.1980 -0.9391 -0.2810
vn -0.1684 -0.9190 0.3565
vn -0.2600 -0.8971 -0.3573
vn -0.3036 0.4088 0.8607
vn -0.0024 0.4655 0.8850
vn 0.3812 0.4814 0.7892
vn 0.3182 0.0993 0.9428
vn -0.1021 0.3501 0.9311
vn -0.1131 0.3064 0.9452
vn -0.4263 0.3470 0.8354
vn -0.4424 0.0728 0.8938
vn -0.3023 -0.1189 0.9458
vn -0.2749 -0.5095 0.8153
vn 0.1710 -0.4653 0.8685
vn 0.3545 -0.1064 0.9290
vn -0.3036 0.4088 -0.8607
vn -0.0024 0.4655 -0.8850
vn 0.3812 0.4814 -0.7892
vn 0.3182 0.0993 -0.9428
vn -0.1021 0.3501 -0.9311
vn -0.1131 0.3064 -0.9452
vn -0.4263 0.3470 -0.8354
vn -0.4424 0.0728 -0.8938
vn -0.3023 -0.1189 -0.9458
vn -0.2749 -0.5095 -0.8153
vn 0.1710 -0.4653 -0.8685
vn 0.3545 -0.1064 -0.9290
# 95 vertex normals

vt 0.7886 0.5479 0.0000
vt 0.9727 0.7686 0.0000
vt 0.7886 0.7686 0.0000
vt 0.9727 0.5479 0.0000
vt 0.7886 0.2998 0.0000
vt 0.9727 0.2998 0.0000
vt 0.7886 0.1689 0.0000
vt 0.9727 0.1689 0.0000
vt 0.7886 0.1279 0.0000
vt 0.9727 0.1279 0.0000
vt 0.7886 0.0942 0.0000
vt 0.9727 0.0942 0.0000
vt 0.7886 0.0649 0.0000
vt 0.9727 0.0649 0.0000
vt 0.7886 0.0376 0.0000
vt 0.9727 0.0376 0.0000
vt 0.7886 0.7280 0.0000
vt 0.9731 0.7675 0.0000
vt 0.7886 0.7675 0.0000
vt 0.9731 0.7280 0.0000
vt 0.7886 0.1582 0.0000
vt 0.9731 0.1582 0.0000
vt 0.7886 0.1245 0.0000
vt 0.9731 0.1245 0.0000
vt 0.7886 0.8121 0.0000
vt 0.9731 0.8420 0.0000
vt 0.7886 0.8420 0.0000
vt 0.9731 0.8121 0.0000
vt 0.7886 0.0425 0.0000
vt 0.9731 0.0425 0.0000
vt 0.7886 0.0083 0.0000
vt 0.9731 0.0083 0.0000
vt 0.7471 0.9872 0.0000
vt 0.7461 0.9912 0.0000
vt 0.6548 0.9720 0.0000
vt 0.6543 0.9761 0.0000
vt 0.6504 0.9409 0.0000
vt 0.6548 0.9409 0.0000
vt 0.6504 0.9719 0.0000
vt 0.6543 0.9368 0.0000
vt 0.7476 0.9266 0.0000
vt 0.7466 0.9226 0.0000
vt 0.7749 0.6946 0.0000
vt 0.7544 0.3306 0.0000
vt 0.7749 0.3306 0.0000
vt 0.7544 0.6946 0.0000
vt 0.7344 0.3306 0.0000
vt 0.7344 0.6946 0.0000
vt 0.7339 0.6946 0.0000
vt 0.7339 0.3306 0.0000
vt 0.7539 0.6946 0.0000
vt 0.7539 0.3306 0.0000
vt 0.7739 0.6946 0.0000
vt 0.7739 0.3306 0.0000
vt 0.2014 0.8881 0.0000
vt 0.1940 0.9199 0.0000
vt 0.1802 0.9024 0.0000
vt 0.2152 0.9057 0.0000
vt 0.2410 0.9797 0.0000
vt 0.2222 0.8776 0.0000
vt 0.2351 0.9111 0.0000
vt 0.3108 0.8503 0.0000
vt 0.2803 0.9669 0.0000
vt 0.3091 0.9670 0.0000
vt 0.3379 0.9661 0.0000
vt 0.3386 0.8450 0.0000
vt 0.3640 0.8499 0.0000
vt 0.3633 0.9696 0.0000
vt 0.3884 0.9665 0.0000
vt 0.3896 0.8453 0.0000
vt 0.4175 0.8512 0.0000
vt 0.4172 0.9678 0.0000
vt 0.4949 0.9128 0.0000
vt 0.4475 0.9666 0.0000
vt 0.4871 0.9808 0.0000
vt 0.5195 0.9078 0.0000
vt 0.5381 0.9243 0.0000
vt 0.5303 0.8887 0.0000
vt 0.5527 0.9077 0.0000
vt 0.5005 0.8766 0.0000
vt 0.9731 0.1372 0.0000
vt 0.7886 0.1016 0.0000
vt 0.9731 0.1016 0.0000
vt 0.7886 0.1372 0.0000
vt 0.9731 0.7163 0.0000
vt 0.7886 0.7163 0.0000
vt 0.9731 0.7518 0.0000
vt 0.7886 0.7518 0.0000
vt 0.7803 0.8896 0.0000
vt 0.7803 0.9572 0.0000
vt 0.7656 0.9235 0.0000
vt 0.8184 0.9794 0.0000
vt 0.8184 0.8676 0.0000
vt 0.9321 0.9794 0.0000
vt 0.9321 0.8676 0.0000
vt 0.9702 0.9572 0.0000
vt 0.9702 0.8896 0.0000
vt 0.9819 0.9235 0.0000
vt 0.4902 0.7992 0.0000
vt 0.6016 0.8842 0.0000
vt 0.5776 0.8952 0.0000
vt 0.6143 0.9180 0.0000
vt 0.6421 0.8998 0.0000
vt 0.6519 0.9227 0.0000
vt 0.6724 0.8900 0.0000
vt 0.6851 0.9106 0.0000
vt 0.7056 0.8859 0.0000
vt 0.6948 0.8586 0.0000
vt 0.7192 0.8535 0.0000
vt 0.4978 0.7756 0.0000
vt 0.2457 0.7992 0.0000
vt 0.2385 0.7756 0.0000
vt 0.0413 0.6863 0.0000
vt 0.0589 0.6677 0.0000
vt 0.0186 0.6460 0.0000
vt 0.0432 0.6414 0.0000
vt 0.0186 0.0693 0.0000
vt 0.0432 0.0693 0.0000
vt 0.0358 0.0415 0.0000
vt 0.0667 0.0415 0.0000
vt 0.0804 0.0151 0.0000
vt 0.6714 0.0415 0.0000
vt 0.6655 0.0151 0.0000
vt 0.7021 0.0415 0.0000
vt 0.6948 0.0693 0.0000
vt 0.7192 0.0693 0.0000
vt 0.1339 0.8818 0.0000
vt 0.1582 0.8929 0.0000
vt 0.1211 0.9161 0.0000
vt 0.0925 0.8978 0.0000
vt 0.0825 0.9210 0.0000
vt 0.0632 0.8878 0.0000
vt 0.0504 0.9088 0.0000
vt 0.0294 0.8835 0.0000
vt 0.0439 0.8561 0.0000
vt 0.0186 0.8506 0.0000
vt 0.6943 0.6855 0.0000
vt 0.6772 0.6667 0.0000
vt 0.7192 0.6450 0.0000
vt 0.6948 0.6404 0.0000
# 140 texture coords

g default
usemtl Fuel_Canister
s 1
f 1/1/1 2/2/2 3/3/3 
f 2/2/2 1/1/1 4/4/4 
f 1/1/1 5/5/5 4/4/4 
f 4/4/4 5/5/5 6/6/6 
f 6/6/6 5/5/5 7/7/7 
f 6/6/6 7/7/7 8/8/8 
f 7/7/7 9/9/9 8/8/8 
f 8/8/8 9/9/9 10/10/10 
f 9/9/9 11/11/11 10/10/10 
f 10/10/10 11/11/11 12/12/12 
f 11/11/11 13/13/13 12/12/12 
f 12/12/12 13/13/13 14/14/14 
f 13/13/13 15/15/15 14/14/14 
f 14/14/14 15/15/15 16/16/16 
f 17/17/17 3/18/3 2/19/2 
f 3/18/3 17/17/17 18/20/18 
f 17/17/17 19/21/19 18/20/18 
f 18/20/18 19/21/19 20/22/20 
f 19/21/19 21/23/21 20/22/20 
f 20/22/20 21/23/21 22/24/22 
f 23/25/23 16/26/16 15/27/15 
f 16/26/16 23/25/23 24/28/24 
f 24/28/24 23/25/23 25/29/25 
f 24/28/24 25/29/25 26/30/26 
f 25/29/25 27/31/27 26/30/26 
f 26/30/26 27/31/27 28/32/28 
f 29/33/29 30/34/30 31/35/31 
f 31/35/31 30/34/30 32/36/32 
f 31/35/31 33/37/33 34/38/34 
f 33/37/33 31/35/31 32/39/32 
f 34/38/34 33/40/33 35/41/35 
f 35/41/35 33/40/33 36/42/36 
f 29/33/29 31/35/31 35/41/35 
f 35/41/35 31/35/31 34/38/34 
f 33/35/33 32/38/32 36/33/36 
f 36/33/36 32/38/32 30/41/30 
f 37/43/37 38/44/38 39/45/39 
f 38/44/38 37/43/37 40/46/40 
f 38/44/38 40/46/40 41/47/41 
f 41/47/41 40/46/40 42/48/42 
f 37/49/37 39/50/39 43/51/43 
f 43/51/43 39/50/39 44/52/44 
f 43/51/43 44/52/44 42/53/42 
f 42/53/42 44/52/44 41/54/41 
f 45/55/45 46/56/46 47/57/47 
f 46/56/46 45/55/45 48/58/48 
f 46/56/46 48/58/48 49/59/49 
f 45/55/45 50/60/50 48/58/48 
f 48/58/48 50/60/50 51/61/51 
f 51/61/51 50/60/50 52/62/52 
f 48/58/48 51/61/51 49/59/49 
f 49/59/49 51/61/51 53/63/53 
f 53/63/53 51/61/51 54/64/54 
f 54/64/54 51/61/51 52/62/52 
f 54/64/54 52/62/52 55/65/55 
f 55/65/55 52/62/52 56/66/56 
f 55/65/55 56/66/56 57/67/57 
f 55/65/55 57/67/57 58/68/58 
f 57/67/57 59/69/59 58/68/58 
f 59/69/59 57/67/57 60/70/60 
f 59/69/59 60/70/60 61/71/61 
f 59/69/59 61/71/61 62/72/62 
f 61/71/61 63/73/63 62/72/62 
f 62/72/62 63/73/63 64/74/64 
f 64/74/64 63/73/63 49/75/49 
f 49/75/49 63/73/63 65/76/65 
f 49/75/49 65/76/65 46/77/46 
f 65/76/65 66/78/66 46/77/46 
f 46/77/46 66/78/66 47/79/47 
f 66/78/66 65/76/65 67/80/67 
f 67/80/67 65/76/65 63/73/63 
f 67/80/67 63/73/63 61/71/61 
f 68/81/68 28/82/28 27/83/27 
f 28/82/28 68/81/68 69/84/69 
f 69/84/69 68/81/68 70/85/70 
f 69/84/69 70/85/70 71/86/71 
f 70/85/70 22/87/22 71/86/71 
f 71/86/71 22/87/22 21/88/21 
f 66/89/66 45/90/45 47/91/47 
f 45/90/45 66/89/66 50/92/50 
f 50/92/50 66/89/66 67/93/67 
f 50/92/50 67/93/67 52/94/52 
f 52/94/52 67/93/67 61/95/61 
f 52/94/52 61/95/61 56/96/56 
f 56/96/56 61/95/61 60/97/60 
f 56/96/56 60/97/60 57/98/57 
f 5/99/5 72/100/72 7/101/7 
f 7/101/7 72/100/72 9/102/9 
f 9/102/9 72/100/72 73/103/73 
f 9/102/9 73/103/73 11/104/11 
f 73/103/73 74/105/74 11/104/11 
f 11/104/11 74/105/74 13/106/13 
f 13/106/13 74/105/74 15/107/15 
f 15/107/15 74/105/74 75/108/75 
f 15/107/15 75/108/75 23/109/23 
f 74/105/74 73/103/73 75/108/75 
f 75/108/75 73/103/73 72/100/72 
f 75/108/75 72/100/72 76/110/76 
f 76/110/76 72/100/72 5/99/5 
f 5/99/5 1/111/1 76/110/76 
f 76/110/76 1/111/1 77/112/77 
f 1/111/1 3/113/3 77/112/77 
f 77/112/77 3/113/3 78/114/78 
f 3/113/3 18/115/18 78/114/78 
f 78/114/78 18/115/18 79/116/79 
f 18/115/18 20/117/20 79/116/79 
f 78/114/78 79/116/79 77/112/77 
f 79/116/79 20/117/20 80/118/80 
f 20/117/20 22/119/22 80/118/80 
f 79/116/79 80/118/80 77/112/77 
f 80/118/80 22/119/22 81/120/81 
f 81/120/81 22/119/22 70/121/70 
f 80/118/80 81/120/81 82/122/82 
f 70/121/70 82/122/82 81/120/81 
f 82/122/82 70/121/70 68/123/68 
f 82/122/82 68/123/68 27/124/27 
f 82/122/82 27/124/27 83/125/83 
f 83/125/83 27/124/27 25/126/25 
f 83/125/83 25/126/25 23/109/23 
f 83/125/83 23/109/23 75/108/75 
f 83/125/83 75/108/75 76/110/76 
f 83/125/83 76/110/76 77/112/77 
f 83/125/83 77/112/77 80/118/80 
f 83/125/83 80/118/80 82/122/82 
f 84/127/84 6/111/6 8/128/8 
f 84/127/84 8/128/8 10/129/10 
f 84/127/84 10/129/10 85/130/85 
f 85/130/85 10/129/10 12/131/12 
f 85/130/85 12/131/12 86/132/86 
f 86/132/86 12/131/12 14/133/14 
f 86/132/86 14/133/14 16/134/16 
f 86/132/86 16/134/16 87/135/87 
f 87/135/87 16/134/16 24/136/24 
f 86/132/86 87/135/87 85/130/85 
f 85/130/85 87/135/87 84/127/84 
f 84/127/84 87/135/87 88/112/88 
f 84/127/84 88/112/88 6/111/6 
f 88/112/88 4/99/4 6/111/6 
f 4/99/4 88/112/88 89/110/89 
f 4/99/4 89/110/89 2/137/2 
f 2/137/2 89/110/89 90/138/90 
f 2/137/2 90/138/90 17/139/17 
f 17/139/17 90/138/90 91/140/91 
f 91/140/91 90/138/90 89/110/89 
f 17/139/17 91/140/91 19/126/19 
f 91/140/91 89/110/89 92/125/92 
f 19/126/19 91/140/91 92/125/92 
f 19/126/19 92/125/92 21/124/21 
f 21/124/21 92/125/92 93/122/93 
f 21/124/21 93/122/93 71/123/71 
f 93/122/93 92/125/92 94/120/94 
f 71/123/71 93/122/93 94/120/94 
f 71/123/71 94/120/94 69/121/69 
f 69/121/69 94/120/94 28/119/28 
f 28/119/28 94/120/94 95/118/95 
f 28/119/28 95/118/95 26/117/26 
f 95/118/95 24/136/24 26/117/26 
f 24/136/24 95/118/95 87/135/87 
f 87/135/87 95/118/95 88/112/88 
f 88/112/88 95/118/95 89/110/89 
f 89/110/89 95/118/95 92/125/92 
f 92/125/92 95/118/95 94/120/94 
# 0 polygons - 162 triangles

